<?xml version="1.0" encoding="UTF-8"?>
<svg id="Capa_1" xmlns="http://www.w3.org/2000/svg" viewBox="0 0 288 265.02">
  <defs>
    <style>
      .cls-1 {
        fill: #fff;
      }

      .cls-2 {
        fill: #083c2c;
      }
    </style>
  </defs>
  <path class="cls-1" d="M40.51,22.66c75,0,150,0,225,0v225c-75,0-150,0-225,0,0-75,0-150,0-225ZM75.55,134.66s.03,0,.04,0c0,31.66-.04,63.32.02,94.98.02,8.68,3.33,12.23,12.03,12.26,42.99.15,85.98.19,128.97.12,10.71-.02,13.77-3.07,13.79-13.65.09-42.32.09-84.65-.1-126.97-.01-2.87-1.15-6.51-3.09-8.49-20.31-20.69-40.86-41.14-61.46-61.54-1.4-1.39-3.68-2.65-5.57-2.67-24.82-.25-49.65-.34-74.47-.27-5.78.02-9.51,3.99-9.94,9.74-.19,2.49-.21,4.99-.21,7.49-.01,29.66,0,59.32,0,88.98Z"/>
  <path class="cls-2" d="M75.55,134.66c0-29.66,0-59.32,0-88.98,0-2.5.02-5,.21-7.49.44-5.75,4.16-9.73,9.94-9.74,24.82-.07,49.65.02,74.47.27,1.89.02,4.17,1.28,5.57,2.67,20.6,20.4,41.15,40.85,61.46,61.54,1.94,1.98,3.08,5.61,3.09,8.49.2,42.32.19,84.65.1,126.97-.02,10.59-3.08,13.64-13.79,13.65-42.99.06-85.98.02-128.97-.12-8.7-.03-12.01-3.58-12.03-12.26-.06-31.66-.02-63.32-.02-94.98-.01,0-.03,0-.04,0ZM154.38,35.63c-2.48,0-4.28,0-6.08,0-19.66,0-39.32.16-58.97-.08-5.16-.07-6.52,1.77-6.51,6.67.12,61.97.08,123.94.09,185.91,0,6.29.27,6.56,6.43,6.56,42.31.01,84.63,0,126.94-.02,6.73,0,6.86-.11,6.87-6.63.03-39.31.02-78.63,0-117.94,0-1.78-.16-3.55-.27-5.77-2.28,0-4.09,0-5.9,0-12.49,0-24.99.02-37.48,0-16.08-.03-25.08-8.97-25.11-24.96-.03-14.3,0-28.61,0-43.74ZM161.6,37.98c0,14.47-.02,28.05,0,41.63.02,11.26,5.89,17.19,17.2,17.27,12.47.08,24.94.03,37.41,0,1.21,0,2.42-.25,3.81-.4-19.44-19.47-38.54-38.59-58.43-58.51Z"/>
  <path class="cls-2" d="M156.63,154.9c0,16.96,0,33.93,0,50.89,0,1.5.41,3.22-.19,4.44-.69,1.39-2.31,3.23-3.49,3.2-1.19-.03-2.65-1.93-3.39-3.33-.55-1.05-.17-2.61-.17-3.94,0-17.15,0-34.29,0-52.88-2.34,2.26-3.92,3.75-5.46,5.28-5.07,5.06-10.13,10.12-15.18,15.2-1.94,1.96-4.07,4.16-6.78,1.68-2.84-2.6-.56-4.79,1.36-6.71,8.69-8.74,17.43-17.42,26.09-26.19,2.35-2.39,4.43-2.51,6.81-.11,8.9,9,17.95,17.86,26.66,27.03,1.14,1.21.65,3.97.92,6.01-2.03-.34-4.74.04-5.99-1.13-6.88-6.46-13.41-13.31-20.06-20.02-.37.2-.75.39-1.12.59Z"/>
</svg>