<?xml version="1.0" encoding="UTF-8"?>
<svg id="Capa_1" xmlns="http://www.w3.org/2000/svg" viewBox="0 0 437.11 428.94">
  <defs>
    <style>
      .cls-1 {
        fill: #fff;
      }

      .cls-2 {
        fill: #083c2c;
      }
    </style>
  </defs>
  <path class="cls-2" d="M13.79,100.19c2.14-6.22,3.4-12.95,6.59-18.58,9.49-16.73,24.35-25.28,43.61-25.4,28.89-.19,57.79-.08,86.69-.04,6.73.01,11.25,4.06,11.3,9.83.06,5.82-4.71,9.99-11.55,10-28.38.02-56.75-.03-85.13.02-15.47.03-26.71,8.39-30.56,22.82-.79,2.97-1,6.17-1,9.26-.05,85-.06,169.99-.02,254.99,0,15.92,7.97,27.07,22.18,31.01,3.21.89,6.67,1.24,10.01,1.24,91.63.06,183.27.06,274.9.04,19.49,0,32.14-12.77,32.17-32.37.04-28.24,0-56.49.02-84.74,0-5.68,2.97-9.85,7.59-10.89,6.08-1.36,11.94,3.02,12.11,9.39.21,7.93.09,15.88.08,23.82-.03,22.52.27,45.04-.21,67.55-.53,24.9-21.7,45.83-46.62,46.9-1.82.08-3.64.15-5.46.15-91.5,0-183.01-.03-274.51.04-20.05.02-35.61-8.03-45.58-25.45-3.21-5.61-4.46-12.34-6.61-18.56,0-90.35,0-180.69,0-271.04Z"/>
  <path class="cls-2" d="M357.46,17.35c11.1.21,21.19,3.83,29.61,11.52,4.61,4.21,9,8.67,13.34,13.16,17.43,18.03,17.79,44.13.94,62.67-1.05,1.15-2.15,2.26-3.26,3.37-57.43,57.43-114.88,114.85-172.25,172.34-3.24,3.25-6.81,5.33-11.24,6.54-25.95,7.07-51.85,14.32-77.76,21.53-3.45.96-6.82,1.67-10.2-.27-4.17-2.4-5.91-6.75-4.43-12.13,5.87-21.43,12.57-42.67,17.47-64.31,3.51-15.53,11.24-27.25,22.49-38.32,54.17-53.33,107.72-107.28,161.4-161.1,9.36-9.38,20.27-14.78,33.88-14.98ZM315.1,70.17c-48.25,48.25-96.54,96.54-144.25,144.24,15.22,15.22,30.71,30.72,45.78,45.78,47.9-47.9,96.18-96.18,144.25-144.25-15.15-15.15-30.59-30.59-45.78-45.78ZM376.33,101.9c4.3-4.62,9.13-9.02,13.02-14.14,6.23-8.2,5.97-20.86-.69-28.67-5.12-6-10.89-11.5-16.78-16.78-4.41-3.96-10.06-5.11-15.98-4.89-12.57.46-18.83,10.14-26.53,17.48,15.72,15.73,31.14,31.17,46.95,47ZM196.5,271.22c-12.35-12.36-24.53-24.55-36.64-36.66-4.53,16.37-9.18,33.21-14.02,50.7,17.49-4.85,34.31-9.51,50.66-14.04Z"/>
  <path class="cls-1" d="M315.1,70.17c15.19,15.19,30.63,30.63,45.78,45.78-48.07,48.07-96.35,96.35-144.25,144.25-15.07-15.07-30.56-30.56-45.78-45.78,47.71-47.71,95.99-95.99,144.25-144.24Z"/>
  <path class="cls-1" d="M376.33,101.9c-15.81-15.83-31.24-31.26-46.95-47,7.7-7.34,13.96-17.02,26.53-17.48,5.92-.22,11.57.93,15.98,4.89,5.88,5.28,11.65,10.78,16.78,16.78,6.66,7.8,6.92,20.46.69,28.67-3.89,5.12-8.72,9.52-13.02,14.14Z"/>
  <path class="cls-1" d="M196.5,271.22c-16.35,4.53-33.17,9.19-50.66,14.04,4.84-17.49,9.49-34.33,14.02-50.7,12.11,12.11,24.29,24.3,36.64,36.66Z"/>
</svg>