<?xml version="1.0" encoding="UTF-8"?>
<svg id="Capa_1" xmlns="http://www.w3.org/2000/svg" viewBox="0 0 650 145">
  <defs>
    <style>
      .cls-1 {
        fill: none;
        stroke: #6fc6d1;
        stroke-miterlimit: 10;
        stroke-width: 7.24px;
      }

      .cls-2 {
        fill: #6fc6d1;
      }

      .cls-3 {
        fill: #083c2c;
      }
    </style>
  </defs>
  <g>
    <g>
      <path class="cls-2" d="M45.35,134c-7.57,0-15.17-1.4-22.79-4.2-7.62-2.8-14.44-6.95-20.46-12.45l15.87-19.13c4.04,3.53,8.58,6.38,13.61,8.56s9.83,3.27,14.39,3.27c5.19,0,9-.91,11.44-2.72,2.43-1.81,3.65-4.28,3.65-7.39,0-2.28-.67-4.12-2.02-5.52-1.35-1.4-3.24-2.67-5.68-3.81-2.44-1.14-5.32-2.38-8.63-3.73l-14.78-6.22c-4.05-1.66-7.86-3.89-11.43-6.69-3.58-2.8-6.48-6.27-8.71-10.42-2.23-4.15-3.35-9.02-3.35-14.62,0-6.53,1.79-12.45,5.37-17.73,3.58-5.29,8.53-9.49,14.86-12.6,6.32-3.11,13.59-4.67,21.78-4.67,6.74,0,13.43,1.27,20.07,3.81,6.64,2.54,12.5,6.35,17.58,11.43l-13.85,17.42c-3.84-2.9-7.62-5.11-11.36-6.61-3.73-1.5-7.88-2.26-12.44-2.26-4.25,0-7.6.83-10.03,2.49-2.44,1.66-3.66,3.99-3.66,7,0,2.18.75,3.99,2.25,5.44,1.51,1.45,3.55,2.75,6.15,3.89,2.59,1.14,5.6,2.39,9.02,3.73l14.47,5.76c4.77,1.87,8.86,4.25,12.29,7.16,3.42,2.9,6.04,6.35,7.86,10.34,1.81,3.99,2.72,8.74,2.72,14.23,0,6.43-1.74,12.39-5.21,17.89-3.48,5.5-8.5,9.93-15.09,13.3s-14.55,5.06-23.88,5.06Z"/>
      <path class="cls-2" d="M108.82,131.82V15.92h27.84v115.9h-27.84Z"/>
      <path class="cls-2" d="M148.65,131.82L184.58,15.92h33.29l35.93,115.9h-29.25l-14.47-57.87c-1.55-5.81-3.08-11.98-4.59-18.51-1.5-6.53-3.03-12.76-4.59-18.67h-.62c-1.35,6.01-2.8,12.26-4.36,18.75-1.55,6.48-3.06,12.63-4.51,18.43l-14.47,57.87h-28.31ZM173.07,105.22v-21.47h56v21.47h-56Z"/>
    </g>
    <polyline class="cls-2" points="217.87 15.92 641.01 15.92 641.01 129.99 240.74 129.99"/>
  </g>
  <line class="cls-1" x1="224.56" y1="128.2" x2="641.01" y2="128.2"/>
  <g>
    <path class="cls-3" d="M261.23,67.38c-1.41,0-2.71-.26-3.89-.79-1.19-.52-2.2-1.24-3.05-2.14l1.49-1.74c.71.74,1.54,1.34,2.5,1.79.96.45,1.95.68,2.98.68,1.32,0,2.35-.3,3.08-.9s1.1-1.37,1.1-2.33c0-.71-.15-1.27-.45-1.68-.3-.42-.7-.76-1.19-1.04-.49-.28-1.06-.56-1.7-.83l-2.85-1.25c-.61-.27-1.23-.61-1.86-1.03-.63-.42-1.14-.96-1.56-1.63-.41-.67-.62-1.48-.62-2.44,0-1.03.27-1.94.81-2.73.54-.79,1.29-1.41,2.23-1.86.94-.45,2.02-.68,3.23-.68s2.29.23,3.3.68c1,.45,1.85,1.04,2.54,1.76l-1.3,1.6c-.61-.56-1.29-1.01-2.02-1.34-.73-.34-1.57-.5-2.51-.5-1.12,0-2.02.26-2.7.77-.68.52-1.02,1.22-1.02,2.1,0,.65.17,1.19.5,1.6.33.42.75.75,1.26,1,.51.25,1.02.5,1.55.73l2.82,1.22c.76.33,1.45.72,2.08,1.17s1.12,1.01,1.48,1.68c.36.67.54,1.49.54,2.47,0,1.05-.27,2-.81,2.86-.54.86-1.32,1.54-2.34,2.04-1.01.5-2.22.75-3.61.75Z"/>
    <path class="cls-3" d="M272.73,67.03v-19.89h2.49v19.89h-2.49Z"/>
    <path class="cls-3" d="M287.03,67.38c-1.41,0-2.71-.26-3.89-.79-1.19-.52-2.2-1.24-3.05-2.14l1.49-1.74c.71.74,1.54,1.34,2.5,1.79.96.45,1.95.68,2.98.68,1.32,0,2.35-.3,3.08-.9s1.1-1.37,1.1-2.33c0-.71-.15-1.27-.45-1.68-.3-.42-.7-.76-1.19-1.04-.49-.28-1.06-.56-1.7-.83l-2.85-1.25c-.61-.27-1.23-.61-1.86-1.03-.63-.42-1.14-.96-1.56-1.63-.41-.67-.62-1.48-.62-2.44,0-1.03.27-1.94.81-2.73.54-.79,1.29-1.41,2.23-1.86.94-.45,2.02-.68,3.23-.68s2.29.23,3.3.68c1,.45,1.85,1.04,2.54,1.76l-1.3,1.6c-.61-.56-1.29-1.01-2.02-1.34-.73-.34-1.57-.5-2.51-.5-1.12,0-2.02.26-2.7.77-.68.52-1.02,1.22-1.02,2.1,0,.65.17,1.19.5,1.6.33.42.75.75,1.26,1,.51.25,1.02.5,1.55.73l2.82,1.22c.76.33,1.45.72,2.08,1.17s1.12,1.01,1.48,1.68c.36.67.54,1.49.54,2.47,0,1.05-.27,2-.81,2.86-.54.86-1.32,1.54-2.34,2.04-1.01.5-2.22.75-3.61.75Z"/>
    <path class="cls-3" d="M301.98,67.03v-17.77h-6.02v-2.12h14.57v2.12h-6.02v17.77h-2.52Z"/>
    <path class="cls-3" d="M314.95,67.03v-19.89h11.45v2.12h-8.96v6.24h7.54v2.14h-7.54v7.25h9.25v2.14h-11.75Z"/>
    <path class="cls-3" d="M331.78,67.03v-19.89h3.01l3.8,10.64c.25.67.5,1.36.73,2.06.23.7.47,1.4.7,2.09h.11c.25-.69.49-1.38.72-2.09.23-.71.45-1.39.66-2.06l3.8-10.64h3.01v19.89h-2.33v-11.02c0-.58.02-1.21.05-1.89.04-.68.08-1.37.14-2.06.05-.7.1-1.33.13-1.91h-.11l-1.6,4.53-3.75,10.34h-1.68l-3.77-10.34-1.6-4.53h-.11c.07.58.13,1.22.18,1.91s.08,1.38.11,2.06c.02.68.04,1.31.04,1.89v11.02h-2.25Z"/>
    <path class="cls-3" d="M352.02,67.03l6.73-19.89h2.79l6.76,19.89h-2.66l-3.47-11.13c-.36-1.14-.71-2.26-1.03-3.35-.33-1.09-.65-2.22-.98-3.38h-.11c-.31,1.16-.63,2.28-.96,3.38-.33,1.1-.67,2.21-1.02,3.35l-3.53,11.13h-2.52ZM355.51,60.95v-1.98h9.17v1.98h-9.17Z"/>
    <path class="cls-3" d="M378.91,67.03v-19.89h4.96c2.05,0,3.76.39,5.15,1.15,1.4.77,2.44,1.88,3.15,3.35.71,1.46,1.06,3.26,1.06,5.37s-.35,3.9-1.06,5.4c-.7,1.5-1.75,2.64-3.12,3.43-1.37.79-3.07,1.18-5.07,1.18h-5.07ZM381.4,64.96h2.25c1.55,0,2.85-.31,3.89-.94,1.04-.63,1.82-1.53,2.33-2.73s.77-2.62.77-4.29-.26-3.13-.77-4.29c-.52-1.16-1.29-2.04-2.33-2.64-1.04-.61-2.34-.91-3.89-.91h-2.25v15.79Z"/>
    <path class="cls-3" d="M398.42,67.03v-19.89h11.45v2.12h-8.96v6.24h7.54v2.14h-7.54v7.25h9.25v2.14h-11.75Z"/>
    <path class="cls-3" d="M422.16,67.03v-19.89h2.49v19.89h-2.49Z"/>
    <path class="cls-3" d="M430.95,67.03v-19.89h2.55l7.27,12.54,2.14,4.1h.13c-.09-.99-.17-2.04-.24-3.12-.07-1.08-.11-2.14-.11-3.17v-10.34h2.39v19.89h-2.58l-7.24-12.56-2.14-4.07h-.11c.06,1,.12,2.01.19,3.05.07,1.04.11,2.09.11,3.13v10.45h-2.36Z"/>
    <path class="cls-3" d="M451.41,67.03v-19.89h3.01l3.8,10.64c.25.67.5,1.36.73,2.06.23.7.47,1.4.7,2.09h.11c.25-.69.49-1.38.72-2.09.23-.71.45-1.39.66-2.06l3.8-10.64h3.01v19.89h-2.33v-11.02c0-.58.02-1.21.05-1.89.04-.68.08-1.37.14-2.06.05-.7.1-1.33.13-1.91h-.11l-1.6,4.53-3.75,10.34h-1.68l-3.77-10.34-1.6-4.53h-.11c.07.58.13,1.22.18,1.91s.08,1.38.11,2.06c.02.68.04,1.31.04,1.89v11.02h-2.25Z"/>
    <path class="cls-3" d="M481.33,67.38c-1.01,0-1.95-.14-2.82-.43s-1.63-.77-2.27-1.44c-.64-.67-1.14-1.56-1.51-2.66-.36-1.1-.54-2.44-.54-4.02v-11.69h2.49v11.75c0,1.59.21,2.84.63,3.76.42.92.97,1.57,1.67,1.95.7.39,1.48.58,2.35.58s1.69-.19,2.39-.58c.71-.39,1.27-1.04,1.7-1.95.43-.91.64-2.17.64-3.76v-11.75h2.41v11.69c0,1.57-.18,2.91-.53,4.02-.35,1.1-.85,1.99-1.51,2.66-.65.67-1.41,1.15-2.28,1.44s-1.81.43-2.82.43Z"/>
    <path class="cls-3" d="M494.68,67.03v-19.89h11.45v2.12h-8.96v6.24h7.54v2.14h-7.54v7.25h9.25v2.14h-11.75Z"/>
    <path class="cls-3" d="M511.51,67.03v-19.89h5.89c1.36,0,2.55.16,3.57.49,1.02.33,1.82.84,2.4,1.55s.87,1.65.87,2.82c0,.65-.11,1.27-.34,1.86s-.56,1.09-.99,1.52-.96.74-1.57.94v.14c1.18.22,2.14.72,2.9,1.52.76.79,1.14,1.87,1.14,3.23s-.32,2.38-.96,3.24c-.64.86-1.53,1.51-2.66,1.94-1.13.43-2.44.65-3.92.65h-6.32ZM514,55.58h2.96c1.72,0,2.95-.29,3.69-.87.74-.58,1.11-1.38,1.11-2.39,0-1.18-.4-2-1.18-2.48-.79-.48-1.96-.72-3.52-.72h-3.07v6.46ZM514,65.02h3.47c1.7,0,3.03-.32,3.99-.95.96-.63,1.44-1.62,1.44-2.96,0-1.25-.47-2.16-1.41-2.73-.94-.57-2.28-.85-4.02-.85h-3.47v7.49Z"/>
    <path class="cls-3" d="M530.17,67.03v-19.89h2.49v17.75h8.71v2.14h-11.21Z"/>
    <path class="cls-3" d="M545.75,67.03v-19.89h11.45v2.12h-8.96v6.24h7.54v2.14h-7.54v7.25h9.25v2.14h-11.75Z"/>
    <path class="cls-3" d="M568.08,67.38c-1.41,0-2.71-.26-3.89-.79-1.19-.52-2.2-1.24-3.05-2.14l1.49-1.74c.71.74,1.54,1.34,2.5,1.79.96.45,1.95.68,2.98.68,1.32,0,2.35-.3,3.08-.9s1.1-1.37,1.1-2.33c0-.71-.15-1.27-.45-1.68-.3-.42-.7-.76-1.19-1.04-.49-.28-1.06-.56-1.7-.83l-2.85-1.25c-.61-.27-1.23-.61-1.86-1.03-.63-.42-1.14-.96-1.56-1.63-.41-.67-.62-1.48-.62-2.44,0-1.03.27-1.94.81-2.73.54-.79,1.29-1.41,2.23-1.86.94-.45,2.02-.68,3.23-.68s2.29.23,3.3.68c1,.45,1.85,1.04,2.54,1.76l-1.3,1.6c-.61-.56-1.29-1.01-2.02-1.34-.73-.34-1.57-.5-2.51-.5-1.12,0-2.02.26-2.7.77-.68.52-1.02,1.22-1.02,2.1,0,.65.17,1.19.5,1.6.33.42.75.75,1.26,1,.51.25,1.02.5,1.55.73l2.82,1.22c.76.33,1.45.72,2.08,1.17s1.12,1.01,1.48,1.68c.36.67.54,1.49.54,2.47,0,1.05-.27,2-.81,2.86-.54.86-1.32,1.54-2.34,2.04-1.01.5-2.22.75-3.61.75Z"/>
    <path class="cls-3" d="M258.92,103.2v-7.71l-5.97-12.18h2.66l2.58,5.62c.33.74.64,1.46.95,2.17.31.71.64,1.44,1.01,2.2h.11c.36-.76.71-1.49,1.03-2.2.33-.7.65-1.43.98-2.17l2.55-5.62h2.61l-6,12.18v7.71h-2.49Z"/>
    <path class="cls-3" d="M275.25,103.2l6.73-19.89h2.79l6.76,19.89h-2.66l-3.47-11.13c-.36-1.14-.71-2.26-1.03-3.35-.33-1.09-.65-2.22-.98-3.38h-.11c-.31,1.16-.63,2.28-.96,3.38-.33,1.1-.67,2.21-1.02,3.35l-3.53,11.13h-2.52ZM278.75,97.13v-1.98h9.17v1.98h-9.17Z"/>
    <path class="cls-3" d="M302.66,103.56c-1.76,0-3.31-.41-4.66-1.22-1.35-.81-2.41-1.99-3.17-3.53-.77-1.54-1.16-3.38-1.16-5.54,0-1.61.23-3.05.68-4.33s1.09-2.35,1.91-3.24,1.78-1.57,2.89-2.04c1.1-.47,2.31-.71,3.64-.71,1.39,0,2.55.26,3.47.77s1.67,1.07,2.25,1.67l-1.36,1.63c-.51-.52-1.1-.97-1.78-1.33s-1.52-.54-2.51-.54c-1.34,0-2.5.33-3.5.98-.99.65-1.76,1.58-2.31,2.78-.54,1.2-.81,2.63-.81,4.27s.26,3.13.77,4.35c.52,1.22,1.27,2.16,2.26,2.82,1,.66,2.2.99,3.61.99.7,0,1.38-.1,2.02-.31.64-.21,1.16-.49,1.56-.85v-5.21h-4.23v-2.09h6.54v8.36c-.65.67-1.51,1.22-2.56,1.66-1.06.43-2.25.65-3.56.65Z"/>
    <path class="cls-3" d="M314.38,103.2v-19.89h11.45v2.12h-8.96v6.24h7.54v2.14h-7.54v7.25h9.25v2.14h-11.75Z"/>
    <path class="cls-3" d="M331.21,103.2v-19.89h2.55l7.27,12.54,2.14,4.1h.13c-.09-.99-.17-2.04-.24-3.12-.07-1.08-.11-2.14-.11-3.17v-10.34h2.39v19.89h-2.58l-7.24-12.56-2.14-4.07h-.11c.06,1,.12,2.01.19,3.05.07,1.04.11,2.09.11,3.13v10.45h-2.36Z"/>
    <path class="cls-3" d="M355.79,103.2v-17.77h-6.02v-2.12h14.57v2.12h-6.02v17.77h-2.52Z"/>
    <path class="cls-3" d="M368.76,103.2v-19.89h11.45v2.12h-8.96v6.24h7.54v2.14h-7.54v7.25h9.25v2.14h-11.75Z"/>
    <path class="cls-3" d="M391.09,103.56c-1.41,0-2.71-.26-3.89-.79-1.19-.52-2.2-1.24-3.05-2.14l1.49-1.74c.71.74,1.54,1.34,2.5,1.79.96.45,1.95.68,2.98.68,1.32,0,2.35-.3,3.08-.9s1.1-1.37,1.1-2.33c0-.71-.15-1.27-.45-1.68-.3-.42-.7-.76-1.19-1.04-.49-.28-1.06-.56-1.7-.83l-2.85-1.25c-.61-.27-1.23-.61-1.86-1.03-.63-.42-1.14-.96-1.56-1.63-.41-.67-.62-1.48-.62-2.44,0-1.03.27-1.94.81-2.73.54-.79,1.29-1.41,2.23-1.86.94-.45,2.02-.68,3.23-.68s2.29.23,3.3.68c1,.45,1.85,1.04,2.54,1.76l-1.3,1.6c-.61-.56-1.29-1.01-2.02-1.34-.73-.34-1.57-.5-2.51-.5-1.12,0-2.02.26-2.7.77-.68.52-1.02,1.22-1.02,2.1,0,.65.17,1.19.5,1.6.33.42.75.75,1.26,1,.51.25,1.02.5,1.55.73l2.82,1.22c.76.33,1.45.72,2.08,1.17s1.12,1.01,1.48,1.68c.36.67.54,1.49.54,2.47,0,1.05-.27,2-.81,2.86-.54.86-1.32,1.54-2.34,2.04-1.01.5-2.22.75-3.61.75Z"/>
    <path class="cls-3" d="M409.51,103.2v-19.89h2.49v19.89h-2.49Z"/>
    <path class="cls-3" d="M418.3,103.2v-19.89h2.55l7.27,12.54,2.14,4.1h.13c-.09-.99-.17-2.04-.24-3.12-.07-1.08-.11-2.14-.11-3.17v-10.34h2.39v19.89h-2.58l-7.24-12.56-2.14-4.07h-.11c.06,1,.12,2.01.19,3.05.07,1.04.11,2.09.11,3.13v10.45h-2.36Z"/>
    <path class="cls-3" d="M438.76,103.2v-19.89h3.01l3.8,10.64c.25.67.5,1.36.73,2.06.23.7.47,1.4.7,2.09h.11c.25-.69.49-1.38.72-2.09.23-.71.45-1.39.66-2.06l3.8-10.64h3.01v19.89h-2.33v-11.02c0-.58.02-1.21.05-1.89.04-.68.08-1.37.14-2.06.05-.7.1-1.33.13-1.91h-.11l-1.6,4.53-3.75,10.34h-1.68l-3.77-10.34-1.6-4.53h-.11c.07.58.13,1.22.18,1.91s.08,1.38.11,2.06c.02.68.04,1.31.04,1.89v11.02h-2.25Z"/>
    <path class="cls-3" d="M468.96,103.56c-1.66,0-3.13-.42-4.41-1.26-1.28-.84-2.28-2.04-3-3.59-.72-1.55-1.09-3.39-1.09-5.51s.36-3.97,1.09-5.49c.72-1.53,1.72-2.7,3-3.51,1.28-.81,2.75-1.22,4.41-1.22s3.13.41,4.41,1.23,2.28,1.99,3,3.51c.72,1.52,1.08,3.35,1.08,5.48s-.36,3.95-1.08,5.51c-.72,1.56-1.72,2.75-3,3.59-1.28.84-2.75,1.26-4.41,1.26ZM468.96,101.36c1.19,0,2.24-.34,3.12-1.01.89-.67,1.58-1.62,2.06-2.85.49-1.23.73-2.67.73-4.31s-.25-3.1-.73-4.3-1.18-2.13-2.06-2.77c-.88-.64-1.93-.96-3.12-.96s-2.21.32-3.11.96c-.9.64-1.59,1.57-2.08,2.77-.49,1.2-.73,2.64-.73,4.3s.24,3.08.73,4.31c.49,1.23,1.18,2.18,2.08,2.85.89.67,1.93,1.01,3.11,1.01Z"/>
    <path class="cls-3" d="M482.61,103.2v-19.89h5.89c1.36,0,2.55.16,3.57.49,1.02.33,1.82.84,2.4,1.55s.87,1.65.87,2.82c0,.65-.11,1.27-.34,1.86s-.56,1.09-.99,1.52-.96.74-1.57.94v.14c1.18.22,2.14.72,2.9,1.52.76.79,1.14,1.87,1.14,3.23s-.32,2.38-.96,3.24c-.64.86-1.53,1.51-2.66,1.94-1.13.43-2.44.65-3.92.65h-6.32ZM485.1,91.75h2.96c1.72,0,2.95-.29,3.69-.87.74-.58,1.11-1.38,1.11-2.39,0-1.18-.4-2-1.18-2.48-.79-.48-1.96-.72-3.52-.72h-3.07v6.46ZM485.1,101.2h3.47c1.7,0,3.03-.32,3.99-.95.96-.63,1.44-1.62,1.44-2.96,0-1.25-.47-2.16-1.41-2.73-.94-.57-2.28-.85-4.02-.85h-3.47v7.49Z"/>
    <path class="cls-3" d="M501.28,103.2v-19.89h2.49v19.89h-2.49Z"/>
    <path class="cls-3" d="M510.07,103.2v-19.89h2.49v17.75h8.71v2.14h-11.21Z"/>
    <path class="cls-3" d="M525.64,103.2v-19.89h2.49v19.89h-2.49Z"/>
    <path class="cls-3" d="M531.8,103.2l6.73-19.89h2.79l6.76,19.89h-2.66l-3.47-11.13c-.36-1.14-.71-2.26-1.03-3.35-.33-1.09-.65-2.22-.98-3.38h-.11c-.31,1.16-.63,2.28-.96,3.38-.33,1.1-.67,2.21-1.02,3.35l-3.53,11.13h-2.52ZM535.3,97.13v-1.98h9.17v1.98h-9.17Z"/>
    <path class="cls-3" d="M551.77,103.2v-19.89h6.21c1.36,0,2.56.18,3.6.53,1.04.35,1.86.94,2.46,1.75.6.81.89,1.91.89,3.28s-.3,2.42-.89,3.3c-.6.88-1.42,1.53-2.46,1.95-1.04.43-2.24.64-3.6.64h-3.72v8.44h-2.49ZM554.27,92.76h3.34c1.55,0,2.75-.32,3.58-.96.83-.64,1.25-1.61,1.25-2.92s-.42-2.22-1.25-2.74c-.83-.52-2.03-.79-3.58-.79h-3.34v7.41ZM562.68,103.2l-5.21-9.09,1.98-1.33,6.05,10.42h-2.82Z"/>
    <path class="cls-3" d="M569.84,103.2v-19.89h2.49v19.89h-2.49Z"/>
    <path class="cls-3" d="M585.96,103.56c-1.66,0-3.13-.42-4.41-1.26-1.28-.84-2.28-2.04-3-3.59-.72-1.55-1.09-3.39-1.09-5.51s.36-3.97,1.09-5.49c.72-1.53,1.72-2.7,3-3.51,1.28-.81,2.75-1.22,4.41-1.22s3.13.41,4.41,1.23,2.28,1.99,3,3.51c.72,1.52,1.08,3.35,1.08,5.48s-.36,3.95-1.08,5.51c-.72,1.56-1.72,2.75-3,3.59-1.28.84-2.75,1.26-4.41,1.26ZM585.96,101.36c1.19,0,2.24-.34,3.12-1.01.89-.67,1.58-1.62,2.06-2.85.49-1.23.73-2.67.73-4.31s-.25-3.1-.73-4.3-1.18-2.13-2.06-2.77c-.88-.64-1.93-.96-3.12-.96s-2.21.32-3.11.96c-.9.64-1.59,1.57-2.08,2.77-.49,1.2-.73,2.64-.73,4.3s.24,3.08.73,4.31c.49,1.23,1.18,2.18,2.08,2.85.89.67,1.93,1.01,3.11,1.01Z"/>
    <path class="cls-3" d="M605.12,103.56c-1.41,0-2.71-.26-3.89-.79-1.19-.52-2.2-1.24-3.05-2.14l1.49-1.74c.71.74,1.54,1.34,2.5,1.79.96.45,1.95.68,2.98.68,1.32,0,2.35-.3,3.08-.9s1.1-1.37,1.1-2.33c0-.71-.15-1.27-.45-1.68-.3-.42-.7-.76-1.19-1.04-.49-.28-1.06-.56-1.7-.83l-2.85-1.25c-.61-.27-1.23-.61-1.86-1.03-.63-.42-1.14-.96-1.56-1.63-.41-.67-.62-1.48-.62-2.44,0-1.03.27-1.94.81-2.73.54-.79,1.29-1.41,2.23-1.86.94-.45,2.02-.68,3.23-.68s2.29.23,3.3.68c1,.45,1.85,1.04,2.54,1.76l-1.3,1.6c-.61-.56-1.29-1.01-2.02-1.34-.73-.34-1.57-.5-2.51-.5-1.12,0-2.02.26-2.7.77-.68.52-1.02,1.22-1.02,2.1,0,.65.17,1.19.5,1.6.33.42.75.75,1.26,1,.51.25,1.02.5,1.55.73l2.82,1.22c.76.33,1.45.72,2.08,1.17s1.12,1.01,1.48,1.68c.36.67.54,1.49.54,2.47,0,1.05-.27,2-.81,2.86-.54.86-1.32,1.54-2.34,2.04-1.01.5-2.22.75-3.61.75Z"/>
  </g>
</svg>